# xmcd
#
# Track frame offsets: 
#        183
#        13395
#        27048
#        39965
#        54833
#        66563
#        80165
#        93733
#        107178
#        118190
#        131510
#        147093
#        156670
#        169353
#        182053
#        199970
#        212838
#        222843
#        235960
#        247868
#        259795
#        273585
#
# Disc length: 3905 seconds
#
# Revision: 2
# Processed by: cddbd v1.5.2PL0 Copyright (c) Steve Scherf et al.
# Submitted via: ExactAudioCopy v0.99pb4
#
DISCID=530f3f16
DTITLE=Etta James - The Essential Etta James Disc 1
DYEAR=1993
DGENRE=Blues
TTITLE0=All I Could Do Is Cry
TTITLE1=My Dearest Darling
TTITLE2=If I Can't Have You
TTITLE3=A Sunday Kind of Love
TTITLE4=Anything to Say You're Mine
TTITLE5=At Last
TTITLE6=Seven Day Fool
TTITLE7=Trust In Me
TTITLE8=Don't Cry Baby
TTITLE9=Fool That I Am
TTITLE10=One For My Baby (And One More For The Road)
TTITLE11=Waiting For Charlie (To Come Home)
TTITLE12=Something's Got a Hold On Me
TTITLE13=Next Door To the Blues
TTITLE14=These Foolish Things (Remind Me Of You)
TTITLE15=Stop The Wedding
TTITLE16=Prisoner Of Love
TTITLE17=Pushover
TTITLE18=Would It Make Any Difference To You
TTITLE19=Pay Back
TTITLE20=Two Sides To Every Story
TTITLE21=Baby What You Want Me To Do
EXTD=
EXTT0=
EXTT1=
EXTT2=With Harvey Fuqua
EXTT3=
EXTT4=
EXTT5=
EXTT6=
EXTT7=
EXTT8=
EXTT9=
EXTT10=
EXTT11=
EXTT12=
EXTT13=
EXTT14=
EXTT15=
EXTT16=
EXTT17=
EXTT18=
EXTT19=
EXTT20=
EXTT21=live
PLAYORDER=
